<?xml version="1.0" encoding="UTF-8" standalone="no"?>
<!-- Generator: Adobe Illustrator 14.0.0, SVG Export Plug-In . SVG Version: 6.00 Build 43363)  -->

<svg
   xmlns:dc="http://purl.org/dc/elements/1.1/"
   xmlns:cc="http://creativecommons.org/ns#"
   xmlns:rdf="http://www.w3.org/1999/02/22-rdf-syntax-ns#"
   xmlns:svg="http://www.w3.org/2000/svg"
   xmlns="http://www.w3.org/2000/svg"
   xmlns:sodipodi="http://sodipodi.sourceforge.net/DTD/sodipodi-0.dtd"
   xmlns:inkscape="http://www.inkscape.org/namespaces/inkscape"
   version="1.1"
   id="Layer_1"
   x="0px"
   y="0px"
   width="595.28px"
   height="841.89px"
   viewBox="0 0 595.28 841.89"
   enable-background="new 0 0 595.28 841.89"
   xml:space="preserve"
   inkscape:version="0.48.5 r10040"
   sodipodi:docname="tardi_icon.svg"><metadata
     id="metadata13"><rdf:RDF><cc:Work
         rdf:about=""><dc:format>image/svg+xml</dc:format><dc:type
           rdf:resource="http://purl.org/dc/dcmitype/StillImage" /></cc:Work></rdf:RDF></metadata><defs
     id="defs11" /><sodipodi:namedview
     pagecolor="#ffffff"
     bordercolor="#666666"
     borderopacity="1"
     objecttolerance="10"
     gridtolerance="10"
     guidetolerance="10"
     inkscape:pageopacity="0"
     inkscape:pageshadow="2"
     inkscape:window-width="1286"
     inkscape:window-height="680"
     id="namedview9"
     showgrid="false"
     inkscape:zoom="2.2425732"
     inkscape:cx="297.64001"
     inkscape:cy="420.94501"
     inkscape:window-x="1980"
     inkscape:window-y="159"
     inkscape:window-maximized="0"
     inkscape:current-layer="Layer_1" /><path
     clip-rule="evenodd"
     d="m 299.413,403.973 c -3.624,11.533 -8.834,21.479 -9.094,36.376 -7.178,8.629 -27.059,8.508 -27.281,-6.496 -3.472,-0.75 -6.77925,-0.61617 -11.28483,-1.78367 -3.697,9.404 -9.96317,17.58067 -19.89417,14.77467 -6.854,-1.936 -9.897,-19.183 -19.487,-11.692 -2.625,6.283 -5.352,11.767 -10.393,12.991 -13.057,3.172 -17.804,-12.538 -28.581,-14.29 -5.371,6.754 -9.147,15.103 -23.384,12.991 -4.163,-2.767 -5.42,-8.438 -9.094,-11.692 -32.321,2.846 -49.3,-17.636 -48.068,-44.17 2.272,-48.934 45.407,-83.242 94.836,-84.443 58.509,-1.422 111.924,27.49 111.725,93.537 0,1.299 0,2.598 0,3.897 z m -15.59,20.786 C 326.629,318.285 168.847,285.25 117.534,345.512 c -10.496,12.327 -18.488,35.904 -15.589,55.863 3.246,22.343 23.206,27.924 45.469,24.683 3.387,3.976 2.693,12.03 9.094,12.991 6.732,0.237 5.527,-7.464 7.794,-11.692 8.002,-2.178 15.862,-1.069 23.384,0 1.896,6.332 2.795,13.661 11.692,12.992 6.599,-2.701 0.45,-11.241 5.197,-14.291 4.8,-1.318 16.123,0.87 24.683,0 2.761,3.302 0.322,11.804 6.496,11.692 1.299,0 2.598,0 3.897,0 4.402,-2.094 2.162,-10.83 7.795,-11.692 8.469,1.25 14.021,-1.324 22.085,1.299 1.013,5.051 1.984,10.142 6.496,11.692 7.259,-2.213 7.319,-7.872 7.796,-14.29 z"
     id="path3"
     inkscape:connector-curvature="0"
     style="fill-rule:evenodd"
     sodipodi:nodetypes="ccccccccccsscccccccccccccccccc" /><path
     fill-rule="evenodd"
     clip-rule="evenodd"
     fill="#85B295"
     d="M276.028,439.049c-4.512-1.551-5.483-6.642-6.496-11.692  c-8.063-2.623-13.616-0.049-22.085-1.299c-5.633,0.862-3.393,9.599-7.795,11.692c-1.299,0-2.598,0-3.897,0  c-6.174,0.111-3.735-8.391-6.496-11.692c-8.56,0.87-19.882-1.318-24.683,0c-4.748,3.05,1.401,11.59-5.197,14.291  c-8.896,0.669-9.796-6.66-11.692-12.992c-7.522-1.069-15.382-2.178-23.384,0c-2.268,4.229-1.062,11.93-7.794,11.692  c-6.401-0.961-5.708-9.016-9.094-12.991c-22.264,3.241-42.224-2.34-45.469-24.683c-2.899-19.958,5.094-43.536,15.589-55.863  c51.312-60.262,209.095-27.227,166.289,79.247C283.346,431.177,283.286,436.836,276.028,439.049z M147.415,392.281  c1.775-12.484-21.692-18.84-19.487,2.599C134.026,403.607,146.286,400.221,147.415,392.281z"
     id="path5" /><path
     fill-rule="evenodd"
     clip-rule="evenodd"
     d="M127.928,394.879c-2.205-21.438,21.262-15.083,19.487-2.599  C146.286,400.221,134.026,403.607,127.928,394.879z"
     id="path7" /></svg>